<svg width="176" height="40" viewBox="0 0 176 40" fill="none" xmlns="http://www.w3.org/2000/svg">
  <!-- Logo Icon - Molecular Hexagon -->
  <rect x="0" y="4" width="32" height="32" rx="8" fill="#3C50E0"/>
  <g transform="translate(0, 4)">
    <!-- Hexagonal molecular structure -->
    <g stroke="#ffffff" stroke-width="1.2" fill="none">
      <path d="M16 6L22.5 9.75V17.25L16 21L9.5 17.25V9.75L16 6Z" stroke-linejoin="round"/>
      <line x1="16" y1="6" x2="16" y2="3"/>
      <line x1="22.5" y1="9.75" x2="25.5" y2="8"/>
      <line x1="22.5" y1="17.25" x2="25.5" y2="19"/>
      <line x1="16" y1="21" x2="16" y2="24"/>
      <line x1="9.5" y1="17.25" x2="6.5" y2="19"/>
      <line x1="9.5" y1="9.75" x2="6.5" y2="8"/>
    </g>
    <!-- Atom nodes -->
    <circle cx="16" cy="6" r="2" fill="#ffffff"/>
    <circle cx="22.5" cy="9.75" r="1.5" fill="#ffffff" opacity="0.9"/>
    <circle cx="22.5" cy="17.25" r="1.5" fill="#ffffff" opacity="0.9"/>
    <circle cx="16" cy="21" r="2" fill="#ffffff"/>
    <circle cx="9.5" cy="17.25" r="1.5" fill="#ffffff" opacity="0.9"/>
    <circle cx="9.5" cy="9.75" r="1.5" fill="#ffffff" opacity="0.9"/>
    <!-- Outer nodes -->
    <circle cx="16" cy="3" r="1.2" fill="#ffffff" opacity="0.6"/>
    <circle cx="25.5" cy="8" r="1.2" fill="#ffffff" opacity="0.6"/>
    <circle cx="25.5" cy="19" r="1.2" fill="#ffffff" opacity="0.6"/>
    <circle cx="16" cy="24" r="1.2" fill="#ffffff" opacity="0.6"/>
    <circle cx="6.5" cy="19" r="1.2" fill="#ffffff" opacity="0.6"/>
    <circle cx="6.5" cy="8" r="1.2" fill="#ffffff" opacity="0.6"/>
    <!-- Center glow -->
    <circle cx="16" cy="13.5" r="2.5" fill="#ffffff" opacity="0.25"/>
  </g>
  
  <!-- Gimzo Text -->
  <text x="42" y="28" font-family="system-ui, -apple-system, BlinkMacSystemFont, 'Segoe UI', Roboto, sans-serif" font-size="22" font-weight="600" fill="white" letter-spacing="-0.5">
    Gimzo
  </text>
</svg>